<svg width="21" height="18" viewBox="0 0 21 18" fill="none" xmlns="http://www.w3.org/2000/svg">
<g clip-path="url(#clip0_139_6666)">
<path d="M10.6789 15.9597C7.68069 15.9597 4.68326 15.9597 1.68505 15.9597C1.38193 15.9597 1.24178 16.0984 1.24178 16.3977C1.24178 16.4752 1.24572 16.5527 1.24099 16.6295C1.23469 16.7225 1.22524 16.8155 1.20792 16.9062C1.14336 17.2372 0.82606 17.5023 0.44656 17.4984C0.0654848 17.4946 -0.250241 17.2116 -0.307717 16.8481C-0.321102 16.7628 -0.328188 16.6752 -0.328188 16.5891C-0.328975 14.8279 -0.340785 13.0659 -0.324251 11.3046C-0.314803 10.2783 0.0646975 9.38527 0.792204 8.64186C1.23391 8.19069 1.75906 7.86976 2.35981 7.66511C2.83222 7.50465 3.32037 7.45581 3.81797 7.45581C8.42945 7.45736 13.0409 7.45348 17.6524 7.45891C19.0035 7.46046 20.0979 7.9969 20.9089 9.06356C21.3073 9.58837 21.545 10.1845 21.6261 10.8357C21.6537 11.055 21.6655 11.2783 21.6663 11.5C21.6694 13.2101 21.6687 14.9202 21.6679 16.6302C21.6679 16.8977 21.601 17.1411 21.3773 17.3178C21.1411 17.5046 20.8774 17.5535 20.5963 17.4395C20.327 17.3295 20.157 17.1271 20.1184 16.838C20.0987 16.6922 20.1011 16.5426 20.0971 16.3953C20.0908 16.1574 19.9908 16.0139 19.7908 15.9698C19.7468 15.9597 19.7003 15.9605 19.6546 15.9605C16.6635 15.9605 13.6724 15.9605 10.6805 15.9605L10.6789 15.9597Z" fill="white"/>
<path d="M10.569 0.5C12.5137 0.5 14.4577 0.5 16.4016 0.5C17.0528 0.5 17.6614 0.643411 18.1865 1.03953C18.8621 1.54884 19.2565 2.21938 19.2896 3.06124C19.3179 3.77519 19.3053 4.4907 19.3085 5.20543C19.3109 5.66589 19.3085 6.12636 19.3085 6.58682C19.3085 6.62791 19.3061 6.67132 19.2951 6.71085C19.2613 6.83566 19.1928 6.88527 19.0636 6.86124C18.9227 6.83488 18.7865 6.77829 18.6456 6.76279C18.3141 6.72713 17.9818 6.70233 17.6488 6.68527C17.4267 6.67364 17.3582 6.63411 17.3267 6.41938C17.226 5.73876 16.5859 5.12636 15.767 5.13566C14.8537 5.14574 13.9404 5.13798 13.0278 5.13798C12.3484 5.13798 11.7681 5.53643 11.5374 6.16434C11.5043 6.25426 11.4917 6.35194 11.4744 6.44651C11.4421 6.61628 11.3784 6.67984 11.2067 6.68217C10.8469 6.68605 10.4863 6.68605 10.1265 6.68217C9.96114 6.68062 9.89579 6.61628 9.86587 6.42791C9.82414 6.16357 9.72021 5.92791 9.55014 5.72093C9.24229 5.34574 8.84389 5.14186 8.35259 5.13953C7.41014 5.13488 6.46769 5.13721 5.52445 5.13876C4.73238 5.13953 4.11274 5.74884 4.01196 6.41783C3.97967 6.63411 3.91433 6.67209 3.69229 6.68605C3.3246 6.71008 2.95691 6.74419 2.59001 6.78295C2.47742 6.79457 2.36955 6.84264 2.25775 6.86124C2.13729 6.88062 2.08139 6.84031 2.04753 6.72403C2.03415 6.67829 2.02785 6.62946 2.02785 6.5814C2.02706 5.47674 2.0121 4.37209 2.031 3.26744C2.05068 2.11163 2.59316 1.26202 3.6545 0.748062C4.07494 0.545736 4.53082 0.5 4.9922 0.5C6.85112 0.5 8.71004 0.5 10.569 0.5Z" fill="white"/>
</g>
<defs>
<clipPath id="clip0_139_6666">
<rect width="22" height="17" fill="white" transform="translate(-0.333008 0.5)"/>
</clipPath>
</defs>
</svg>
