<svg width="21" height="20" viewBox="0 0 21 20" fill="none" xmlns="http://www.w3.org/2000/svg">
<path d="M18.8327 4.83351C18.2063 5.10525 17.5439 5.28489 16.866 5.36684C17.5812 4.93961 18.1171 4.26749 18.3743 3.47517C17.7023 3.87523 16.9667 4.15709 16.1993 4.30851C15.6865 3.75232 15.0035 3.38209 14.2575 3.25588C13.5116 3.12968 12.7448 3.25464 12.0775 3.61117C11.4102 3.96769 10.8801 4.53562 10.5704 5.22587C10.2606 5.91613 10.1888 6.68967 10.366 7.42517C9.0072 7.35645 7.67805 7.00264 6.46489 6.38673C5.25174 5.77082 4.18172 4.90659 3.32435 3.85017C3.02363 4.37532 2.86561 4.97003 2.86602 5.57517C2.86495 6.13716 3.00286 6.69069 3.26748 7.18648C3.53209 7.68227 3.9152 8.10493 4.38268 8.41684C3.83933 8.40206 3.30759 8.25626 2.83268 7.99184V8.03351C2.83675 8.82092 3.11268 9.58275 3.61378 10.1901C4.11488 10.7975 4.8104 11.2132 5.58268 11.3668C5.2854 11.4573 4.97674 11.505 4.66602 11.5085C4.45092 11.506 4.23637 11.4865 4.02435 11.4502C4.24427 12.1275 4.66987 12.7195 5.24191 13.1436C5.81395 13.5678 6.504 13.8031 7.21602 13.8168C6.01368 14.7629 4.52925 15.2792 2.99935 15.2835C2.72079 15.2844 2.44246 15.2677 2.16602 15.2335C3.72804 16.2421 5.54836 16.7774 7.40768 16.7752C8.69076 16.7885 9.96363 16.546 11.1519 16.0619C12.3403 15.5778 13.4202 14.8617 14.3287 13.9556C15.2372 13.0494 15.956 11.9713 16.4431 10.7843C16.9303 9.59719 17.176 8.32495 17.166 7.04184C17.166 6.90017 17.166 6.75017 17.166 6.60017C17.8199 6.11252 18.3839 5.5147 18.8327 4.83351Z" fill="white"/>
</svg>
