<svg width="21" height="20" viewBox="0 0 21 20" fill="none" xmlns="http://www.w3.org/2000/svg">
<path d="M19.6669 8.0919C19.7081 6.89911 19.4472 5.71525 18.9085 4.65023C18.543 4.21323 18.0358 3.91832 17.4752 3.8169C15.1565 3.6065 12.8281 3.52027 10.5002 3.55856C8.18072 3.51853 5.86078 3.60198 3.55019 3.80856C3.09337 3.89166 2.67062 4.10593 2.33352 4.42523C1.58352 5.1169 1.50019 6.30023 1.41685 7.30023C1.29595 9.0982 1.29595 10.9023 1.41685 12.7002C1.44096 13.2631 1.52476 13.8218 1.66685 14.3669C1.76733 14.7878 1.97062 15.1772 2.25852 15.5002C2.59791 15.8364 3.03051 16.0629 3.50019 16.1502C5.29678 16.372 7.10703 16.4639 8.91685 16.4252C11.8335 16.4669 14.3919 16.4252 17.4169 16.1919C17.8981 16.1099 18.3428 15.8832 18.6919 15.5419C18.9252 15.3085 19.0994 15.0228 19.2002 14.7086C19.4982 13.7941 19.6446 12.837 19.6335 11.8752C19.6669 11.4086 19.6669 8.5919 19.6669 8.0919ZM8.61685 12.3752V7.2169L13.5502 9.80856C12.1669 10.5752 10.3419 11.4419 8.61685 12.3752Z" fill="white"/>
</svg>
