<svg width="21" height="21" viewBox="0 0 21 21" fill="none" xmlns="http://www.w3.org/2000/svg">
<path fill-rule="evenodd" clip-rule="evenodd" d="M4.66699 17V4H4.41699C4.00278 4 3.66699 3.66421 3.66699 3.25C3.66699 2.83579 4.00278 2.5 4.41699 2.5H16.917C17.3312 2.5 17.667 2.83579 17.667 3.25C17.667 3.66421 17.3312 4 16.917 4H16.667V17H16.917C17.3312 17 17.667 17.3358 17.667 17.75C17.667 18.1642 17.3312 18.5 16.917 18.5H13.417C13.0028 18.5 12.667 18.1642 12.667 17.75V15.25C12.667 14.8358 12.3312 14.5 11.917 14.5H9.41699C9.00278 14.5 8.66699 14.8358 8.66699 15.25V17.75C8.66699 18.1642 8.33121 18.5 7.91699 18.5H4.41699C4.00278 18.5 3.66699 18.1642 3.66699 17.75C3.66699 17.3358 4.00278 17 4.41699 17H4.66699ZM7.66699 6C7.66699 5.72386 7.89085 5.5 8.16699 5.5H9.16699C9.44313 5.5 9.66699 5.72386 9.66699 6V7C9.66699 7.27614 9.44313 7.5 9.16699 7.5H8.16699C7.89085 7.5 7.66699 7.27614 7.66699 7V6ZM8.16699 9.5C7.89085 9.5 7.66699 9.72386 7.66699 10V11C7.66699 11.2761 7.89085 11.5 8.16699 11.5H9.16699C9.44313 11.5 9.66699 11.2761 9.66699 11V10C9.66699 9.72386 9.44313 9.5 9.16699 9.5H8.16699ZM11.667 6C11.667 5.72386 11.8908 5.5 12.167 5.5H13.167C13.4431 5.5 13.667 5.72386 13.667 6V7C13.667 7.27614 13.4431 7.5 13.167 7.5H12.167C11.8908 7.5 11.667 7.27614 11.667 7V6ZM12.167 9.5C11.8908 9.5 11.667 9.72386 11.667 10V11C11.667 11.2761 11.8908 11.5 12.167 11.5H13.167C13.4431 11.5 13.667 11.2761 13.667 11V10C13.667 9.72386 13.4431 9.5 13.167 9.5H12.167Z" fill="white"/>
</svg>
